<?xml version="1.0" standalone="no"?>
<!DOCTYPE svg PUBLIC "-//W3C//DTD SVG 20010904//EN"
 "http://www.w3.org/TR/2001/REC-SVG-20010904/DTD/svg10.dtd">
<svg version="1.0" xmlns="http://www.w3.org/2000/svg"
 width="21.000000pt" height="54.000000pt" viewBox="0 0 21.000000 54.000000"
 preserveAspectRatio="xMidYMid meet">

<g transform="translate(0.000000,54.000000) scale(0.100000,-0.100000)"
fill="#000000" stroke="none">
<path d="M63 313 c-25 -5 -53 -35 -38 -40 6 -2 9 -40 9 -90 l-2 -88 7 70 6 70
60 0 60 0 3 -67 c2 -38 7 -68 11 -68 11 0 7 188 -4 199 -12 12 -82 21 -112 14z"/>
<path d="M47 84 c-4 -4 -7 -15 -7 -25 0 -22 47 -34 96 -24 29 5 35 10 32 28
-3 19 -10 22 -58 25 -31 2 -59 0 -63 -4z"/>
</g>
</svg>
