<?xml version="1.0" standalone="no"?>
<!DOCTYPE svg PUBLIC "-//W3C//DTD SVG 20010904//EN"
 "http://www.w3.org/TR/2001/REC-SVG-20010904/DTD/svg10.dtd">
<svg version="1.0" xmlns="http://www.w3.org/2000/svg"
 width="42.000000pt" height="83.000000pt" viewBox="0 0 42.000000 83.000000"
 preserveAspectRatio="xMidYMid meet">

<g transform="translate(0.000000,83.000000) scale(0.100000,-0.100000)"
fill="#000000" stroke="none">
<path d="M161 826 c2 -2 36 -6 74 -9 41 -3 60 -2 45 3 -25 8 -127 13 -119 6z"/>
<path d="M128 813 c7 -3 16 -2 19 1 4 3 -2 6 -13 5 -11 0 -14 -3 -6 -6z"/>
<path d="M103 617 c-17 -7 -34 -14 -37 -17 -3 -3 0 -36 6 -72 l11 -66 29 10
c17 6 73 9 128 6 85 -4 100 -3 104 11 3 9 2 -21 -1 -67 -4 -73 -3 -81 11 -76
13 5 16 23 16 99 0 52 4 96 10 100 5 3 7 12 4 20 -4 8 -10 13 -14 10 -4 -3
-10 3 -12 13 -10 37 -180 57 -255 29z m254 -94 c-3 -10 -5 -4 -5 12 0 17 2 24
5 18 2 -7 2 -21 0 -30z"/>
<path d="M37 567 c-3 -8 -3 -18 1 -22 10 -10 29 -205 20 -205 -4 0 -8 -37 -8
-82 1 -75 2 -81 15 -64 18 24 20 199 3 301 -12 74 -22 96 -31 72z"/>
<path d="M343 325 c-9 -24 2 -124 15 -137 9 -9 12 8 12 70 0 50 -4 82 -10 82
-6 0 -13 -7 -17 -15z"/>
<path d="M84 145 c-3 -26 -2 -51 3 -56 28 -28 218 -28 246 0 5 5 7 29 3 54
l-7 45 -42 -10 c-41 -10 -146 -5 -179 7 -13 5 -18 -2 -24 -40z"/>
<path d="M70 26 c0 -2 11 -6 25 -8 13 -3 22 -1 19 3 -5 9 -44 13 -44 5z"/>
<path d="M295 20 c-4 -7 3 -8 22 -4 38 9 42 14 10 14 -14 0 -29 -5 -32 -10z"/>
</g>
</svg>
